<svg width="32" height="32" viewBox="0 0 32 32" fill="none" xmlns="http://www.w3.org/2000/svg">
<path d="M24 0C28.4183 0 32 3.58172 32 8V24C32 28.4183 28.4183 32 24 32H8C3.58172 32 0 28.4183 0 24V8C0 3.58172 3.58172 0 8 0H24Z" fill="#2563EB"/>
<path d="M24 0C28.4183 0 32 3.58172 32 8V24C32 28.4183 28.4183 32 24 32H8C3.58172 32 0 28.4183 0 24V8C0 3.58172 3.58172 0 8 0H24Z" stroke="#E5E7EB"/>
<path d="M23.875 26H8.125V6H23.875V26Z" stroke="#E5E7EB"/>
<g clip-path="url(#clip0_1_282)">
<path d="M23.0985 11.5883L21.5317 9.1082C21.3922 8.88672 21.1434 8.75 20.8782 8.75H11.1219C10.8567 8.75 10.6079 8.88672 10.4684 9.1082L8.89889 11.5883C8.08951 12.868 8.80592 14.648 10.318 14.8531C10.4274 14.8668 10.5395 14.875 10.6489 14.875C11.3626 14.875 11.9969 14.5633 12.4317 14.082C12.8665 14.5633 13.5008 14.875 14.2145 14.875C14.9282 14.875 15.5626 14.5633 15.9973 14.082C16.4321 14.5633 17.0665 14.875 17.7801 14.875C18.4965 14.875 19.1282 14.5633 19.563 14.082C20.0005 14.5633 20.6321 14.875 21.3458 14.875C21.4579 14.875 21.5672 14.8668 21.6766 14.8531C23.1942 14.6508 23.9133 12.8707 23.1012 11.5883H23.0985ZM21.7887 15.7199H21.786C21.6411 15.7391 21.4934 15.75 21.343 15.75C21.004 15.75 20.6786 15.698 20.3751 15.6051V19.25H11.6251V15.6023C11.3188 15.698 10.9907 15.75 10.6516 15.75C10.5012 15.75 10.3508 15.7391 10.2059 15.7199H10.2032C10.0911 15.7035 9.9817 15.6844 9.87506 15.657V19.25V21C9.87506 21.9652 10.6598 22.75 11.6251 22.75H20.3751C21.3403 22.75 22.1251 21.9652 22.1251 21V19.25V15.657C22.0157 15.6844 21.9063 15.7062 21.7887 15.7199Z" fill="white"/>
</g>
<defs>
<clipPath id="clip0_1_282">
<path d="M8.125 8.75H23.875V22.75H8.125V8.75Z" fill="white"/>
</clipPath>
</defs>
</svg>
